<?xml version="1.0" encoding="UTF-8" standalone="no"?>
<!-- Created with Inkscape (http://www.inkscape.org/) -->
<!DOCTYPE svg PUBLIC "-//W3C//DTD SVG 1.1//EN" "http://www.w3.org/Graphics/SVG/1.1/DTD/svg11.dtd">
<svg
   xmlns:svg="http://www.w3.org/2000/svg"
   xmlns="http://www.w3.org/2000/svg"
   version="1.1"
   width="400"
   height="400"
   id="svg8943">
  <defs
     id="defs8945">
    <clipPath
       id="clipPath7086">
      <path
         d="m 333.369,400.17 55.692,0 0,45.324 -55.692,0 0,-45.324"
         id="path7088" />
    </clipPath>
  </defs>
  <g
     transform="translate(0,-652.36218)"
     id="layer1">
    <g
       transform="matrix(6.7209056,0,0,6.7209056,-952.15524,-2725.5939)"
       id="g9016">
      <g
         transform="matrix(1.25,0,0,-1.25,-280.09268,1060.9022)"
         id="g7082">
        <g
           clip-path="url(#clipPath7086)"
           id="g7084">
          <g
             transform="translate(361.177,445.494)"
             id="g7090">
            <path
               d="m 0,0 c 11.161,0 20.44,-8.071 22.317,-18.694 l -0.379,0 C 20.065,-8.279 10.954,-0.373 0,-0.373 c -10.954,0 -20.064,-7.906 -21.937,-18.321 l -0.38,0 C -20.439,-8.071 -11.16,0 0,0 M 22.054,-27.905 C 19.688,-37.894 10.711,-45.328 0,-45.328 c -10.71,0 -19.688,7.434 -22.054,17.423 l 0.385,0 c 2.358,-9.78 11.166,-17.05 21.669,-17.05 10.503,0 19.311,7.27 21.669,17.05"
               id="path7092"
               style="fill:#68737a;fill-opacity:1;fill-rule:evenodd;stroke:none" />
          </g>
        </g>
      </g>
      <g
         transform="matrix(1.25,0,0,-1.25,171.37857,504.93718)"
         id="g7094">
        <path
           d="m 0,0 c 10.76,0 19.714,-7.751 21.582,-17.972 l -5.175,0 C 14.621,-10.568 7.952,-5.064 0,-5.064 c -7.952,0 -14.621,-5.504 -16.407,-12.908 l -5.175,0 C -19.713,-7.751 -10.76,0 0,0 m 21.31,-27.183 c -2.351,-9.586 -11,-16.701 -21.31,-16.701 -10.309,0 -18.959,7.115 -21.309,16.701 l 5.263,0 C -13.841,-33.937 -7.49,-38.82 0,-38.82 c 7.49,0 13.841,4.883 16.047,11.637"
           id="path7096"
           style="fill:#002f66;fill-opacity:1;fill-rule:evenodd;stroke:none" />
      </g>
      <g
         transform="matrix(1.25,0,0,-1.25,159.00857,552.85468)"
         id="g7098">
        <path
           d="m 0,0 -1.649,1.199 0.634,0.873 -0.726,0.527 -1.734,-2.386 0.726,-0.528 0.666,0.916 1.649,-1.198 -0.665,-0.916 0.726,-0.528 L 1.361,0.346 0.634,0.873 0,0 z m 4.458,-0.785 c -0.258,0.093 -0.451,0.16 -0.451,0.16 0,0 -0.067,0.023 -0.202,0.064 l -0.201,0.07 -0.202,0.065 C 3.196,-0.36 3.016,-0.312 2.868,-0.28 2.409,-0.187 2.078,-0.373 1.891,-0.823 1.821,-0.986 1.707,-1.288 1.627,-1.522 1.552,-1.74 1.51,-1.875 1.479,-2.019 1.396,-2.355 1.477,-2.663 1.696,-2.87 c 0.136,-0.121 0.3,-0.215 0.637,-0.351 0.135,-0.056 0.418,-0.158 0.597,-0.22 0.138,-0.047 0.407,-0.135 0.755,-0.241 0.143,-0.044 0.311,-0.087 0.432,-0.115 0.471,-0.101 0.755,-0.035 0.98,0.224 0.133,0.155 0.212,0.329 0.409,0.902 0.217,0.631 0.249,0.887 0.146,1.157 -0.112,0.286 -0.329,0.431 -0.969,0.651 L 4.458,-0.785 z M 4.153,-1.438 C 4.504,-1.559 4.67,-1.649 4.726,-1.743 4.785,-1.857 4.764,-2.041 4.646,-2.384 4.375,-3.17 4.379,-3.172 3.129,-2.741 c -0.824,0.284 -0.848,0.334 -0.582,1.108 0.176,0.51 0.3,0.598 0.69,0.496 0.094,-0.027 0.137,-0.037 0.536,-0.17 l 0.38,-0.131 z m 5.44,-2.099 C 9.572,-3.78 9.515,-3.877 9.365,-3.917 9.279,-3.936 9.234,-3.937 8.917,-3.909 l -0.106,0.005 -0.207,0.018 c 0,0 -0.101,0.009 -0.229,0.025 L 8.257,-3.847 C 8.076,-3.831 7.945,-3.806 7.876,-3.782 7.657,-3.701 7.608,-3.55 7.65,-3.07 l 0.03,0.295 c 0.025,0.184 0.04,0.254 0.082,0.321 0.063,0.115 0.178,0.162 0.391,0.166 0.098,0 0.125,-0.002 0.579,-0.037 l 0.211,-0.019 c 0.41,-0.036 0.536,-0.06 0.62,-0.121 0.075,-0.051 0.092,-0.11 0.081,-0.291 l 0.863,-0.076 c 0.014,0.15 0.017,0.194 0.014,0.261 0.002,0.32 -0.074,0.522 -0.248,0.661 C 10.132,-1.8 9.98,-1.751 9.617,-1.697 9.45,-1.674 9.01,-1.626 8.79,-1.607 8.596,-1.59 8.464,-1.578 8.296,-1.573 8.013,-1.552 7.881,-1.55 7.742,-1.56 7.385,-1.577 7.173,-1.674 7.007,-1.895 6.866,-2.082 6.807,-2.299 6.764,-2.793 6.693,-3.603 6.73,-3.948 6.918,-4.182 c 0.176,-0.22 0.421,-0.304 1.121,-0.374 0,0 0.075,-0.007 0.233,-0.025 l 0.234,-0.02 C 8.66,-4.619 8.735,-4.626 8.735,-4.626 l 0.141,-0.008 0.137,-0.012 0.141,-0.008 c 0.357,-0.022 0.633,-0.015 0.783,0.026 0.336,0.086 0.48,0.308 0.525,0.824 l 0.012,0.19 -0.881,0.077 z m 2.817,2.031 -0.881,-0.172 0.563,-2.895 0.881,0.171 -0.215,1.103 0.452,0.087 1.508,-0.851 1.294,0.252 -2.121,1.106 1.38,1.755 -1.22,-0.237 -0.978,-1.321 -0.451,-0.088 -0.212,1.09 z m 4.955,-1.828 2.982,1.39 -0.282,0.605 -2.169,-1.011 -0.22,0.473 2.024,0.944 -0.247,0.529 -2.024,-0.944 -0.215,0.461 2.169,1.011 -0.283,0.606 -2.982,-1.391 1.247,-2.673 z m 4.721,4.777 -1.536,0.315 -0.883,-0.715 2.52,-0.435 0.645,-0.797 0.702,0.568 -0.646,0.797 0.078,2.539 -0.873,-0.707"
           id="path7100"
           style="fill:white;fill-opacity:1;fill-rule:nonzero;stroke:none" />
      </g>
      <g
         transform="matrix(1.25,0,0,-1.25,143.25482,532.21968)"
         id="g7102">
        <path
           d="m 0,0 12.395,0 -0.142,-0.438 -11.518,0 C 0.49,-0.284 0.245,-0.142 0,0 m 15.284,0 2.412,0 -0.142,-0.438 -2.425,0 L 15.284,0 z m 4.927,0 24.944,0 -0.154,-0.438 -24.932,0"
           id="path7104"
           style="fill:#ef3e33;fill-opacity:1;fill-rule:evenodd;stroke:none" />
      </g>
      <g
         transform="matrix(1.25,0,0,-1.25,171.37857,511.78718)"
         id="g7106">
        <path
           d="m 0,0 c 7.721,0 14.202,-5.319 15.978,-12.492 l -0.354,0 C 13.855,-5.511 7.53,-0.345 0,-0.345 c -7.53,0 -13.855,-5.166 -15.624,-12.147 l -0.354,0 C -14.201,-5.319 -7.721,0 0,0 M 15.609,-21.703 C 13.42,-28.224 7.258,-32.924 0,-32.924 c -7.257,0 -13.419,4.7 -15.609,11.221 l 0.365,0 c 2.175,-6.327 8.179,-10.876 15.244,-10.876 7.065,0 13.069,4.549 15.245,10.876"
           id="path7108"
           style="fill:#68737a;fill-opacity:1;fill-rule:evenodd;stroke:none" />
      </g>
      <g
         transform="matrix(1.25,0,0,-1.25,154.60482,514.93218)"
         id="g7110">
        <path
           d="m 0,0 -1.345,-1.392 -0.737,0.712 -0.592,-0.614 2.015,-1.945 0.592,0.613 -0.773,0.747 1.345,1.392 L 1.278,-1.234 1.87,-0.62 -0.145,1.325 -0.737,0.712 0,0 z M 4.168,2.169 C 4.29,1.973 4.302,1.867 4.211,1.751 4.157,1.687 4.123,1.661 3.867,1.501 L 3.784,1.444 3.616,1.339 c 0,0 -0.081,-0.051 -0.187,-0.112 L 3.331,1.171 C 3.185,1.079 3.071,1.023 3.005,1.002 2.792,0.938 2.669,1.025 2.427,1.413 L 2.281,1.654 C 2.195,1.808 2.166,1.869 2.159,1.944 2.142,2.067 2.202,2.169 2.362,2.293 2.435,2.349 2.457,2.363 2.821,2.596 L 2.992,2.702 C 3.324,2.909 3.434,2.963 3.531,2.965 3.618,2.969 3.665,2.934 3.759,2.79 L 4.458,3.227 C 4.382,3.348 4.359,3.383 4.319,3.432 4.137,3.675 3.965,3.785 3.753,3.792 3.583,3.794 3.44,3.745 3.134,3.578 2.994,3.501 2.633,3.285 2.455,3.174 2.298,3.076 2.192,3.009 2.061,2.917 1.835,2.772 1.733,2.698 1.633,2.611 1.373,2.394 1.267,2.199 1.267,1.936 1.268,1.714 1.347,1.516 1.596,1.117 2.006,0.462 2.231,0.221 2.507,0.151 c 0.259,-0.066 0.494,0.01 1.064,0.357 0,0 0.061,0.038 0.191,0.114 L 3.951,0.74 C 4.078,0.815 4.138,0.853 4.138,0.853 L 4.25,0.927 4.36,0.996 4.472,1.071 C 4.756,1.258 4.961,1.422 5.052,1.538 5.258,1.795 5.239,2.046 4.979,2.463 L 4.88,2.614 4.168,2.169 z M 8.249,5.632 7.418,5.441 8.048,2.711 8.879,2.903 8.639,3.942 9.065,4.041 10.524,3.283 11.743,3.564 9.694,4.544 10.945,6.255 9.796,5.989 8.912,4.704 8.486,4.605 8.249,5.632 z m 6.191,0.659 c -0.261,0.009 -0.454,0.012 -0.454,0.012 0,0 -0.067,0.001 -0.201,0 L 13.583,6.306 13.381,6.305 c -0.205,0 -0.382,-0.01 -0.525,-0.024 C 12.414,6.23 12.17,5.965 12.133,5.504 12.117,5.336 12.103,5.03 12.099,4.795 12.095,4.576 12.097,4.442 12.112,4.303 12.135,3.975 12.299,3.72 12.557,3.598 c 0.159,-0.07 0.334,-0.107 0.678,-0.13 0.139,-0.011 0.424,-0.02 0.605,-0.023 0.138,-0.003 0.407,-0.003 0.752,0.004 0.142,0.001 0.306,0.012 0.424,0.022 0.455,0.047 0.692,0.19 0.819,0.49 C 15.91,4.14 15.93,4.32 15.94,4.896 15.951,5.53 15.905,5.77 15.732,5.983 15.547,6.209 15.309,6.276 14.666,6.287 L 14.44,6.291 z M 14.356,5.612 C 14.709,5.606 14.885,5.574 14.963,5.505 15.05,5.419 15.085,5.247 15.079,4.902 15.065,4.113 15.07,4.113 13.814,4.135 12.987,4.149 12.95,4.188 12.963,4.964 c 0.009,0.513 0.095,0.629 0.478,0.652 0.092,0.002 0.134,0.006 0.533,0.003 L 14.356,5.612 z M 16.774,4.122 16.75,4.033 16.738,3.988 C 16.659,3.692 16.654,3.576 16.726,3.44 c 0.085,-0.171 0.259,-0.283 0.636,-0.415 0.18,-0.061 0.382,-0.12 0.617,-0.183 0.32,-0.086 0.803,-0.198 1.06,-0.244 0.443,-0.084 0.656,-0.067 0.82,0.072 0.118,0.103 0.221,0.292 0.283,0.524 0.088,0.328 0.075,0.554 -0.051,0.718 -0.116,0.166 -0.292,0.256 -0.726,0.373 l -0.361,0.096 c -0.118,0.032 0.045,-0.012 -0.545,0.155 l -0.182,0.053 c -0.109,0.029 -0.181,0.053 -0.197,0.057 -0.19,0.055 -0.256,0.151 -0.217,0.297 0.044,0.163 0.129,0.188 0.432,0.119 L 18.37,5.047 c 0.246,-0.053 0.373,-0.083 0.487,-0.113 0.121,-0.033 0.319,-0.09 0.384,-0.108 0.132,-0.044 0.174,-0.064 0.221,-0.115 0.054,-0.058 0.06,-0.116 0.038,-0.232 l 0.807,-0.216 c 0.041,0.167 0.05,0.203 0.058,0.28 0.032,0.234 -0.035,0.422 -0.212,0.574 -0.116,0.1 -0.265,0.162 -0.608,0.258 l -0.223,0.064 -0.223,0.06 C 18.95,5.543 18.877,5.563 18.877,5.563 18.715,5.606 18.284,5.7 18.072,5.739 17.919,5.768 17.852,5.777 17.771,5.781 17.353,5.797 17.155,5.625 17.021,5.126 16.929,4.781 16.953,4.548 17.092,4.402 17.242,4.245 17.405,4.175 18.032,3.998 18.331,3.914 18.691,3.813 18.853,3.77 19.093,3.705 19.16,3.683 19.227,3.639 19.307,3.583 19.333,3.498 19.301,3.38 19.257,3.218 19.177,3.192 18.892,3.25 c -0.21,0.044 -0.345,0.075 -0.572,0.136 -0.028,0.008 -0.173,0.051 -0.348,0.098 -0.145,0.043 -0.229,0.07 -0.271,0.09 -0.141,0.073 -0.17,0.128 -0.124,0.285 l 0.008,0.046 -0.811,0.217 z m 2.229,1.603 1.125,0.22 -0.049,0.291 -0.929,0.036 -0.835,0.437 -0.179,-0.23 0.867,-0.754 z M 22.438,4.231 21.659,4.577 20.52,2.019 21.299,1.672 22.438,4.231 z M 24.793,0.832 C 24.671,0.636 24.58,0.579 24.436,0.609 c -0.081,0.021 -0.119,0.04 -0.375,0.2 l -0.088,0.05 -0.167,0.105 c 0,0 -0.082,0.051 -0.183,0.119 l -0.094,0.064 c -0.146,0.091 -0.246,0.168 -0.295,0.218 -0.15,0.163 -0.126,0.312 0.116,0.7 l 0.153,0.237 c 0.101,0.145 0.143,0.197 0.207,0.237 0.103,0.069 0.221,0.06 0.403,-0.029 0.083,-0.042 0.104,-0.056 0.473,-0.281 L 24.757,2.122 C 25.088,1.915 25.185,1.84 25.23,1.753 25.272,1.677 25.26,1.62 25.173,1.471 l 0.698,-0.436 c 0.075,0.121 0.098,0.157 0.124,0.215 0.139,0.269 0.162,0.473 0.075,0.666 C 25.997,2.07 25.891,2.176 25.606,2.379 25.475,2.471 25.124,2.7 24.946,2.812 24.789,2.909 24.682,2.976 24.542,3.054 24.312,3.192 24.201,3.252 24.079,3.303 23.77,3.442 23.548,3.452 23.313,3.337 23.113,3.239 22.97,3.081 22.72,2.682 22.311,2.026 22.193,1.719 22.251,1.44 c 0.055,-0.262 0.226,-0.439 0.788,-0.8 0,0 0.06,-0.038 0.186,-0.122 L 23.414,0.4 C 23.537,0.319 23.597,0.281 23.597,0.281 L 23.713,0.213 23.824,0.144 23.94,0.077 c 0.293,-0.173 0.529,-0.286 0.674,-0.317 0.321,-0.072 0.539,0.055 0.799,0.472 l 0.092,0.155 -0.712,0.445 z m 0.586,-1.909 2.17,-2.248 0.456,0.441 -1.578,1.634 0.357,0.344 1.473,-1.525 0.399,0.385 -1.474,1.525 0.348,0.336 1.578,-1.635 0.456,0.441 -2.17,2.247"
           id="path7112"
           style="fill:white;fill-opacity:1;fill-rule:nonzero;stroke:none" />
      </g>
      <g
         transform="matrix(1.25,0,0,-1.25,198.69982,532.76718)"
         id="g7114">
        <path
           d="m 0,0 -0.658,-1.935 -24.003,0 -2.476,-7.287 c -1.393,-0.8 -2.709,-1.664 -3.947,-2.58 l 3.341,9.867 -1.858,0 -2.412,-7.158 -0.658,1.328 c -0.386,0.774 -0.812,1.509 -1.302,2.219 l -0.194,0.296 1.123,3.315 -4.05,0 c -0.117,0.103 -0.233,0.219 -0.362,0.322 -0.644,0.568 -1.328,1.084 -1.999,1.613 l 7.055,0 0.155,0.438 -8.216,0 c -0.4,0.232 -0.812,0.451 -1.225,0.658 -0.155,0.077 -0.31,0.142 -0.464,0.219 l -2.283,1.058 12.846,0 1.741,5.159 3.457,0 -1.754,-5.159 0.67,0 -0.58,-1.935 -0.735,0 -0.155,-0.438 1.857,0 2.541,7.532 3.083,0 -0.413,-1.213 -0.193,-0.567 c 0.141,0.219 0.296,0.426 0.464,0.619 0.103,0.103 0.219,0.206 0.322,0.297 0.091,0.077 0.181,0.142 0.271,0.206 0.194,0.129 0.387,0.232 0.606,0.323 0.194,0.077 0.387,0.141 0.581,0.193 0.748,0.181 1.535,0.193 2.296,0.193 0.67,0 1.341,-0.012 2.012,-0.129 0.206,-0.025 0.399,-0.077 0.593,-0.141 l 0.258,-0.116 c 0.103,-0.065 0.206,-0.129 0.297,-0.207 l 0.129,-0.116 c 0.116,-0.142 0.219,-0.284 0.283,-0.451 l 0.052,-0.116 c 0.077,-0.258 0.09,-0.503 0.077,-0.774 -0.051,-0.413 -0.167,-0.8 -0.271,-1.2 l -2.05,0 0.232,0.826 c 0.013,0.103 0.038,0.219 0.026,0.322 l -0.129,0.078 c -0.284,0.103 -0.594,0.128 -0.89,0.154 -0.555,0.026 -1.11,0.026 -1.651,0 -0.245,-0.026 -0.477,-0.038 -0.723,-0.09 -0.103,-0.026 -0.206,-0.052 -0.322,-0.09 L -19.837,5.43 -20.044,5.288 -20.211,5.094 c -0.065,-0.077 -0.116,-0.167 -0.181,-0.258 -0.077,-0.154 -0.155,-0.309 -0.219,-0.464 -0.155,-0.413 -0.31,-0.851 -0.387,-1.29 -0.026,-0.167 -0.052,-0.335 -0.013,-0.503 0.026,-0.103 0.065,-0.129 0.155,-0.18 0.193,-0.078 0.413,-0.091 0.619,-0.117 0.516,-0.051 1.032,-0.051 1.561,-0.051 0.464,0 0.967,0.013 1.431,0.142 0.104,0.039 0.194,0.077 0.284,0.129 l 0.077,0.064 c 0.155,0.142 0.246,0.297 0.323,0.477 0.09,0.207 0.155,0.4 0.232,0.607 l 2.051,0 C -14.446,3.185 -14.588,2.708 -14.807,2.257 -14.91,2.063 -15.013,1.87 -15.155,1.689 l -0.129,-0.155 c -0.232,-0.258 -0.49,-0.464 -0.787,-0.645 -0.129,-0.077 -0.258,-0.141 -0.4,-0.193 -0.206,-0.09 -0.413,-0.142 -0.645,-0.193 -0.619,-0.091 -1.418,-0.091 -2.205,-0.091 -0.98,0.013 -1.948,0.039 -2.618,0.232 -0.091,0.026 -0.168,0.065 -0.258,0.104 -0.129,0.077 -0.233,0.141 -0.349,0.245 -0.09,0.077 -0.154,0.154 -0.219,0.245 -0.064,0.103 -0.129,0.193 -0.18,0.296 -0.039,0.117 -0.078,0.22 -0.104,0.336 -0.025,0.077 -0.038,0.167 -0.051,0.258 -0.013,0.18 -0.013,0.361 0,0.554 L -23.823,0.554 -24.016,0 0,0"
           id="path7116"
           style="fill:#68737a;fill-opacity:1;fill-rule:evenodd;stroke:none" />
      </g>
      <g
         transform="matrix(1.25,0,0,-1.25,178.51482,528.51093)"
         id="g7118">
        <path
           d="M 0,0 1.509,0 C 1.444,-0.194 1.38,-0.387 1.315,-0.568 1.199,-0.89 1.057,-1.187 0.864,-1.471 L 0.786,-1.561 C 0.541,-1.884 0.232,-2.141 -0.116,-2.335 -0.271,-2.412 -0.413,-2.477 -0.581,-2.541 l -0.167,-0.052 c -0.478,-0.129 -0.968,-0.168 -1.471,-0.18 -0.593,-0.026 -1.199,-0.013 -1.805,0.012 -0.529,0.013 -1.084,0.052 -1.6,0.207 -0.129,0.038 -0.245,0.09 -0.374,0.155 l -0.18,0.129 c -0.104,0.09 -0.194,0.193 -0.284,0.309 l -0.103,0.194 c -0.052,0.141 -0.091,0.283 -0.116,0.438 -0.026,0.168 -0.026,0.336 -0.026,0.503 l 0.013,0.181 c 0.051,0.49 0.18,0.954 0.335,1.418 0.077,0.22 0.155,0.426 0.245,0.645 0.103,0.22 0.206,0.439 0.323,0.658 0.09,0.129 0.167,0.258 0.258,0.374 0.128,0.181 0.257,0.335 0.412,0.49 l 0.232,0.194 c 0.207,0.167 0.426,0.296 0.658,0.4 0.207,0.09 0.413,0.154 0.619,0.206 0.684,0.155 1.393,0.181 2.09,0.181 0.322,0 0.645,0 0.967,-0.013 0.542,-0.026 1.096,-0.052 1.612,-0.22 L 1.289,3.598 C 1.405,3.547 1.509,3.482 1.612,3.392 L 1.728,3.289 C 1.818,3.172 1.896,3.056 1.96,2.914 2.012,2.785 2.05,2.669 2.063,2.528 2.102,2.076 1.973,1.625 1.857,1.186 l -1.522,0 C 0.387,1.38 0.451,1.573 0.49,1.78 0.516,1.934 0.541,2.089 0.464,2.231 0.348,2.373 0.154,2.424 -0.013,2.463 -0.31,2.528 -0.607,2.553 -0.916,2.566 l -0.348,0.013 c -0.632,0 -1.29,0.013 -1.922,-0.116 C -3.302,2.437 -3.418,2.412 -3.534,2.373 -3.638,2.334 -3.728,2.295 -3.818,2.244 L -4.063,2.076 -4.27,1.844 C -4.334,1.754 -4.399,1.663 -4.463,1.56 -4.553,1.393 -4.618,1.225 -4.695,1.057 -4.863,0.632 -5.018,0.18 -5.108,-0.271 c -0.039,-0.245 -0.077,-0.542 0.052,-0.761 0.116,-0.181 0.335,-0.245 0.528,-0.284 0.413,-0.077 0.852,-0.09 1.277,-0.103 0.233,-0.013 0.478,-0.013 0.723,-0.013 0.477,0.013 0.954,0.026 1.418,0.129 0.129,0.039 0.245,0.09 0.374,0.155 l 0.168,0.116 c 0.09,0.077 0.155,0.167 0.232,0.271 0.052,0.09 0.103,0.193 0.155,0.296 C -0.116,-0.31 -0.065,-0.155 0,0"
           id="path7120"
           style="fill:#d6d4cd;fill-opacity:1;fill-rule:evenodd;stroke:none" />
      </g>
      <g
         transform="matrix(1.25,0,0,-1.25,161.63482,523.69093)"
         id="g7122">
        <path
           d="m 0,0 2.889,0 -1.754,-5.159 0.683,0 -0.413,-1.393 -0.735,0 -0.335,-0.98 2.425,0 L 5.301,0 7.816,0 5.262,-7.532 l 23.422,0 -0.477,-1.393 -23.409,0 -2.451,-7.236 c -1.109,-0.658 -2.18,-1.328 -3.199,-2.051 l 3.135,9.287 -2.425,0 -2.27,-6.733 c -0.142,0.31 -0.297,0.619 -0.452,0.916 -0.361,0.722 -0.774,1.419 -1.225,2.089 l -0.129,0.181 1.199,3.547 -4.32,0 c -0.168,0.155 -0.348,0.309 -0.542,0.464 -0.374,0.322 -0.761,0.619 -1.148,0.929 l 6.475,0 0.335,0.98 -8.512,0 c -0.491,0.271 -0.981,0.542 -1.497,0.774 -0.438,0.206 -0.877,0.413 -1.315,0.619 l 11.801,0"
           id="path7124"
           style="fill:#cbccce;fill-opacity:1;fill-rule:evenodd;stroke:none" />
      </g>
      <g
         transform="matrix(1.25,0,0,-1.25,177.75607,532.10718)"
         id="g7126">
        <path
           d="M 0,0 5.65,1.445 C 6.849,1.677 8.191,1.38 9.287,2.051 9.532,2.206 9.661,2.412 9.829,2.632 9.635,2.309 9.455,2.012 9.106,1.832 8.074,1.277 6.888,1.174 5.74,0.968 L 0,0 z M 2.709,0.284 7.958,0.993 9.093,1.006 10.216,1.187 9.119,0.839 7.971,0.671 2.709,0.284 z M 4.231,1.754 5.211,2.103 6.204,2.748 8.41,3.599 6.462,2.296 C 6.114,2.09 5.701,1.974 5.314,1.871 L 4.231,1.754 z M 2.786,0.671 4.889,1.484 7.081,2.232 5.095,0.993 C 4.373,0.71 3.56,0.736 2.786,0.671 m 7.288,3.457 -0.568,0 L 9.88,3.754 C 9.545,3.999 9.519,4.192 9.39,3.818 9.313,4.089 9.403,4.102 9.119,3.947 8.848,3.805 8.9,3.831 9.093,3.999 l 0.194,0.155 c -0.632,0.116 -0.658,0.103 0,0.103 L 8.913,4.631 9.326,4.334 9.39,4.566 C 9.48,4.308 9.39,4.282 9.674,4.437 9.945,4.579 9.893,4.553 9.687,4.386 L 9.506,4.231 10.074,4.128 z m 0.296,-0.671 0.22,-0.31 0.206,0.258 C 10.706,3.186 10.525,3.147 10.925,3.122 10.706,3.044 10.654,3.096 10.912,2.954 11.144,2.825 11.105,2.851 10.873,2.941 L 10.667,3.018 C 10.796,2.644 10.822,2.632 10.564,3.006 l -0.207,-0.271 0.117,0.271 -0.246,0.012 c 0.207,0.091 0.271,0.039 0.013,0.181 -0.245,0.129 -0.193,0.09 0.039,0.013 L 10.486,3.122 10.37,3.457 z M 9.209,3.392 9.081,3.122 9.468,3.16 C 9.197,3.096 9.029,3.147 9.3,2.954 9.068,3.018 9.068,3.07 9.132,2.877 9.171,2.696 9.171,2.735 9.093,2.877 L 9.016,3.031 C 8.771,2.773 8.771,2.748 8.926,3.07 L 8.539,3.018 8.874,3.109 8.707,3.225 C 8.939,3.173 8.926,3.122 8.874,3.315 8.823,3.496 8.836,3.457 8.913,3.302 L 8.99,3.16 9.209,3.392 z M 10.77,2.245 10.641,1.935 11.028,2.064 C 10.744,1.935 10.59,1.961 10.86,1.819 10.628,1.832 10.628,1.884 10.68,1.703 c 0.052,-0.168 0.052,-0.142 -0.039,0 L 10.564,1.832 C 10.319,1.509 10.332,1.496 10.486,1.845 L 10.1,1.716 10.422,1.884 10.267,1.961 c 0.219,0 0.219,-0.052 0.168,0.129 -0.052,0.167 -0.039,0.129 0.039,0 l 0.077,-0.129"
           id="path7128"
           style="fill:#ef3e33;fill-opacity:1;fill-rule:evenodd;stroke:none" />
      </g>
      <g
         transform="matrix(1.25,0,0,-1.25,168.85732,535.75093)"
         id="g7130">
        <path
           d="M 0,0 4.308,0 4.656,-0.232 5.172,0 19.824,0 C 19.218,-0.038 18.598,-0.077 17.992,-0.141 14.987,-0.412 12.059,-0.928 9.26,-1.663 l 0.052,0.013 0.077,0.206 -1.147,0 0.077,0.219 1.083,0 0.104,0.31 -1.071,0 0.064,0.206 1.136,0 0.116,0.335 -1.561,0 -0.49,-1.405 1.109,0 C 4.862,-2.863 1.161,-4.346 -2.154,-6.178 l 1.535,4.399 0.309,0 0.181,0.528 0.232,0 0.451,-0.528 0.645,0 -0.632,0.709 1.071,0.709 -0.658,0 -0.748,-0.528 -0.232,0 0.18,0.515 -0.309,0 L 0,0 z m 2.683,-0.348 c -0.607,0 -0.736,-0.026 -0.877,-0.103 -0.142,-0.09 -0.22,-0.219 -0.362,-0.632 -0.141,-0.4 -0.154,-0.542 -0.077,-0.632 0.077,-0.077 0.193,-0.09 0.787,-0.09 0.593,0 0.735,0.013 0.864,0.09 0.142,0.09 0.219,0.232 0.361,0.632 0.142,0.413 0.168,0.555 0.09,0.632 -0.077,0.077 -0.206,0.103 -0.786,0.103 M 2.528,-0.722 c 0.413,0 0.451,0 0.477,-0.064 C 3.031,-0.825 3.018,-0.915 2.941,-1.122 2.876,-1.289 2.837,-1.354 2.786,-1.392 2.708,-1.431 2.631,-1.444 2.283,-1.444 c -0.348,0 -0.413,0.013 -0.452,0.052 -0.038,0.038 -0.025,0.103 0.026,0.283 0.065,0.168 0.103,0.258 0.142,0.297 0.077,0.09 0.116,0.09 0.529,0.09 m 0.89,-0.593 -0.026,-0.077 c -0.065,-0.194 -0.065,-0.271 0.013,-0.336 0.077,-0.051 0.232,-0.077 0.671,-0.077 0.425,0 0.606,0.013 0.709,0.038 0.155,0.052 0.258,0.181 0.348,0.426 0.065,0.194 0.065,0.297 -0.013,0.348 -0.064,0.065 -0.155,0.078 -0.619,0.091 -0.283,0 -0.4,0.013 -0.438,0.025 l -0.026,0.091 c 0.039,0.103 0.064,0.103 0.413,0.103 0.322,0 0.374,0 0.399,-0.026 l 0,-0.116 0.413,0 0.026,0.077 c 0.064,0.155 0.052,0.258 0,0.31 -0.077,0.064 -0.219,0.09 -0.632,0.09 -0.335,0 -0.529,-0.013 -0.619,-0.026 -0.219,-0.051 -0.335,-0.167 -0.426,-0.438 -0.116,-0.31 -0.051,-0.4 0.297,-0.413 0.129,0 0.245,-0.013 0.335,-0.013 l 0.116,0 0.22,-0.013 c 0.141,0 0.167,-0.025 0.129,-0.103 -0.039,-0.129 -0.039,-0.129 -0.503,-0.129 -0.297,0 -0.349,0 -0.374,0.026 l 0,0.142 -0.413,0 z m 2.205,0.941 -0.503,-1.405 0.452,0 0.503,1.405 -0.452,0 z M 7.3,-1.238 C 7.236,-1.444 7.223,-1.457 6.771,-1.457 c -0.296,0 -0.361,0.013 -0.4,0.052 -0.038,0.038 -0.025,0.103 0.052,0.322 0.077,0.206 0.116,0.297 0.181,0.335 0.064,0.026 0.141,0.039 0.412,0.039 0.271,0 0.387,-0.013 0.413,-0.039 0.013,-0.025 0.013,-0.038 -0.013,-0.129 l 0.426,0 0.026,0.065 C 7.945,-0.58 7.945,-0.477 7.842,-0.425 7.764,-0.374 7.635,-0.348 7.261,-0.348 6.526,-0.348 6.358,-0.386 6.217,-0.58 6.152,-0.657 6.101,-0.773 5.997,-1.096 5.933,-1.264 5.894,-1.38 5.881,-1.444 5.843,-1.599 5.855,-1.676 5.933,-1.728 c 0.09,-0.064 0.258,-0.077 0.825,-0.077 0.297,0 0.465,0.013 0.581,0.051 0.18,0.052 0.271,0.155 0.348,0.374 l 0.052,0.142"
           id="path7132"
           style="fill:#002f66;fill-opacity:1;fill-rule:evenodd;stroke:none" />
      </g>
      <g
         transform="matrix(1.25,0,0,-1.25,161.87607,524.01343)"
         id="g7134">
        <path
           d="m 0,0 2.309,0 -1.741,-5.172 0.696,0 -0.258,-0.851 -0.722,0 -0.516,-1.522 2.992,0 L 5.301,0 7.249,0 4.695,-7.545 l 25.189,0 -0.296,-0.851 -25.177,0 -2.45,-7.275 c -0.852,-0.49 -1.677,-1.006 -2.477,-1.548 l 2.98,8.823 -2.993,0 -2.115,-6.295 c -0.426,0.878 -0.916,1.716 -1.47,2.516 l 1.277,3.779 -4.592,0 c -0.322,0.296 -0.658,0.58 -1.006,0.851 l 5.881,0 0.516,1.522 -8.822,0 c -0.529,0.296 -1.083,0.593 -1.651,0.851 l 10.77,0 L 0,0 z m 13.491,-3.856 c -0.425,-1.174 -0.928,-1.419 -2.889,-1.419 -1.264,0 -1.973,0.077 -2.296,0.258 -0.464,0.245 -0.516,0.838 -0.167,1.896 0.644,1.986 1.186,2.36 3.521,2.36 2.218,0 2.657,-0.271 2.321,-1.406 l 0.993,0 c 0.207,0.787 0.207,1.2 -0.025,1.561 -0.323,0.503 -1.084,0.671 -3.018,0.671 -1.445,0 -2.193,-0.104 -2.799,-0.387 C 8.242,-0.735 7.61,-1.586 7.145,-3.031 6.746,-4.295 6.759,-5.095 7.171,-5.559 c 0.4,-0.438 1.187,-0.567 3.379,-0.567 1.522,0 2.258,0.167 2.89,0.657 0.464,0.374 0.748,0.8 1.019,1.613"
           id="path7136"
           style="fill:#002f66;fill-opacity:1;fill-rule:evenodd;stroke:none" />
      </g>
    </g>
  </g>
</svg>
